<?xml version="1.0" encoding="UTF-8" standalone="no"?>
<!-- Created with Inkscape (http://www.inkscape.org/) -->

<svg
   width="856mm"
   height="672mm"
   viewBox="0 0 856 672"
   version="1.1"
   id="svg267250"
   xml:space="preserve"
   inkscape:version="1.2.1 (9c6d41e410, 2022-07-14)"
   sodipodi:docname="2qbradas.svg"
   xmlns:inkscape="http://www.inkscape.org/namespaces/inkscape"
   xmlns:sodipodi="http://sodipodi.sourceforge.net/DTD/sodipodi-0.dtd"
   xmlns:xlink="http://www.w3.org/1999/xlink"
   xmlns="http://www.w3.org/2000/svg"
   xmlns:svg="http://www.w3.org/2000/svg"><sodipodi:namedview
     id="namedview267252"
     pagecolor="#ffffff"
     bordercolor="#666666"
     borderopacity="1.0"
     inkscape:showpageshadow="2"
     inkscape:pageopacity="0.0"
     inkscape:pagecheckerboard="0"
     inkscape:deskcolor="#d1d1d1"
     inkscape:document-units="mm"
     showgrid="false"
     inkscape:zoom="0.19968723"
     inkscape:cx="1081.6916"
     inkscape:cy="1447.2633"
     inkscape:window-width="1600"
     inkscape:window-height="837"
     inkscape:window-x="-8"
     inkscape:window-y="-8"
     inkscape:window-maximized="1"
     inkscape:current-layer="layer2" /><defs
     id="defs267247" /><g
     inkscape:label="Fondo"
     inkscape:groupmode="layer"
     id="layer1"
     sodipodi:insensitive="true"
     style="display:none"><image
       width="855.47198"
       height="672.59204"
       preserveAspectRatio="none"
       xlink:href="Divisin%20Adm1.jpg"
       id="fondo"
       x="0"
       y="0"
       inkscape:svg-dpi="1"
       style="display:inline;opacity:0.4"
       inkscape:label="img" /></g><g
     inkscape:groupmode="layer"
     id="layer2"
     inkscape:label="comunas"
     inkscape:highlight-color="#2199f3"
     sodipodi:insensitive="true"><path
       style="display:inline;opacity:0.5;fill:#ffaa70;fill-opacity:1;stroke:#d45500;stroke-width:0.264583px;stroke-linecap:butt;stroke-linejoin:miter;stroke-opacity:1"
       d="m 461.31032,561.67665 c 12.04613,-14.79419 -14.29636,-21.84502 -22.168,-31.33022 -7.48281,-5.596 -14.47676,-12.06768 -22.86524,-16.15513 -2.57861,-4.25324 -10.6995,-6.87251 -9.18631,-12.3321 2.36056,-12.76095 8.40472,-24.4155 11.82444,-36.91834 4.34316,-11.4022 9.44168,-22.40933 16.63012,-32.32336 -3.25898,-3.45653 1.86965,-10.33881 0.70268,-14.28784 -5.0614,-6.37654 -6.48595,-10.95959 -15.14238,-13.53436 -4.81696,-5.76221 -8.13856,-1.3 -14.88118,-2.19809 -3.23967,-2.4758 -7.45023,-6.36051 -9.73649,-6.9144 -2.1627,-6.17337 -14.06523,4.72862 -12.05171,-7.6929 -5.38709,-6.25918 -7.53263,10.97487 -12.60068,-1.28092 -4.71297,0.27126 -5.67827,-7.51694 -7.59862,-9.81982 2.77438,-2.88083 4.47858,-10.91265 -1.28398,-10.18971 -3.982,0.12355 -11.10811,-6.85983 -7.86465,1.27137 -5.96601,2.13105 -8.93392,-6.68206 -14.97295,-4.47822 -6.83631,5.82377 -13.0619,5.32531 -18.71184,-1.15789 -10.22433,1.86937 -18.51301,-1.1164 -20.18745,-12.86785 -6.15967,-8.67221 -28.02052,2.19332 -11.62351,6.41197 7.759,12.17806 -3.07615,7.45005 -8.89358,12.94535 -4.05112,1.87578 -10.93282,10.91143 -11.18408,1.74874 -4.13527,-7.79715 -12.43309,-0.67049 -18.41196,0.78844 -4.41185,3.66892 -13.30121,0.38426 -14.85959,6.95474 -3.28761,7.28698 -6.57523,14.57396 -9.86284,21.86094 -11.49074,-3.50122 -17.32545,13.19858 -27.49258,6.51888 -5.71903,-1.26991 -9.96028,-5.33762 -15.99605,-4.4833 -13.40678,-1.14816 -3.11213,10.71669 1.87488,11.52763 -7.87864,5.01044 -18.49005,5.592 -19.51953,17.58899 -9.68894,-2.51742 -16.48159,-0.0682 -20.85719,7.7844 -2.65544,-6.83401 -14.00332,-10.31094 -6.08625,-17.25779 -9.4222,-11.92169 -21.7284,2.50783 -26.22978,8.96286 11.59979,17.49516 -14.732321,25.79885 -22.74016,37.02068 -8.892211,0.0581 -17.884119,-7.13602 -12.74159,6.58764 -6.280989,2.91619 -17.114784,7.2573 -7.528434,14.91185 4.190802,6.46867 12.36879,5.78204 18.888449,8.04242 3.992625,-3.41165 7.077433,-11.6602 12.746665,-6.13878 5.11245,2.47059 10.24444,6.7872 15.27792,1.80073 3.50361,-8.69585 10.95591,-15.15999 18.34324,-21.11952 6.97164,-5.09118 16.10553,7.74686 23.28547,-2.84 11.02707,-12.72547 23.50701,1.55589 35.75897,2.06413 7.00535,-0.60799 13.15895,5.75646 20.17932,2.29214 10.33213,-1.86525 22.88743,-4.89565 31.31131,2.78765 6.6127,5.93768 15.26998,7.92292 23.92045,7.33425 9.10226,2.22192 18.23434,5.92832 27.33111,7.20746 10.54388,-2.90387 21.58993,-9.31409 32.47,-6.32911 7.52119,3.71661 5.67188,17.6332 16.43982,17.39137 16.59245,-10.09866 25.37897,8.07165 39.52628,11.6807 15.61961,0.38724 23.77788,14.35637 31.21652,26.00753 7.91477,17.53296 30.7845,4.11703 41.41928,19.01943 l 2.12428,1.60025 z"
       id="path268442"
       sodipodi:nodetypes="csccccccccccccccsccsccccccccccsccsssscccscccccccccccccccssccsscsscscccccscccccsccccscssssscsssssssccscscscsssccsccccccssscccccsccccc"
       inkscape:label="comuna01"
       sodipodi:insensitive="true" /><path
       id="path268412"
       style="display:inline;opacity:0.5;fill:#00ffff;stroke:#008080;stroke-width:0.264583px;stroke-linecap:butt;stroke-linejoin:miter;stroke-opacity:1"
       inkscape:label="comuna02"
       d="m 435.67263,432.69142 c -5.51947,8.54903 -11.19729,17.01537 -14.50356,26.7202 -4.89592,10.94236 -6.98423,22.91701 -11.98267,33.81827 -0.19808,3.96539 -3.51514,8.87514 -1.58917,12.19743 5.37177,5.12897 10.47158,10.57948 17.38518,13.62386 12.63677,11.61601 27.87048,20.08919 40.05447,32.16787 -3.46759,8.09448 -3.73998,13.17243 6.3029,16.00388 12.2542,4.21759 26.12254,3.04909 35.99618,13.07498 7.66021,-0.93557 14.66879,10.65759 17.52032,-0.0218 2.94334,-4.98967 5.88667,-9.97933 8.83001,-14.969 -4.52823,-2.88871 -9.05647,-5.77743 -13.5847,-8.66614 3.80381,-9.55078 1.32836,-20.90428 14.94534,-20.76566 6.18689,1.6988 15.94714,9.33902 19.65652,0.98383 6.72167,-7.97106 11.43083,-17.33003 17.02909,-26.07584 -8.98493,-6.23791 -13.09578,-17.6804 -18.78761,-26.89068 -4.08937,-6.35348 -6.70019,-19.28932 -13.76874,-19.88585 -2.16936,-0.62757 -7.47046,0.60046 -8.40578,1.19268 -2.58005,-2.64534 -2.50998,3.01132 -4.29648,-1.83599 -2.85993,0.48244 -9.9329,3.30803 -10.0182,-0.94258 1.92686,-5.31892 -10.17935,-3.94437 -10.22728,0.57981 -5.48847,1.91777 -10.95861,0.92021 -17.37876,-1.91051 -1.46826,-4.50403 -8.17405,-3.00195 -10.90163,-0.44955 -7.06099,-7.30959 -11.07965,5.1029 -18.59112,-0.9524 -8.16275,5.66506 -16.41334,-4.32339 -16.72822,-11.55227 -0.78946,-4.57085 -0.87596,-10.30564 -5.58933,-13.93219 0.46741,-1.03335 -0.87903,-1.0261 -1.36676,-1.51234 z m 210.91116,122.07575 c -14.05268,0.80285 -28.07228,2.42217 -42.16073,2.34198 2.61075,5.25521 5.62496,9.98746 11.9867,10.9596 10.38753,3.96673 19.76112,12.31159 23.16227,23.03273 1.4663,3.00808 5.33466,11.45025 8.85754,9.01399 7.26922,-5.87178 18.92701,-5.01955 24.38794,-13.62541 6.14461,-9.527 22.10781,-11.27261 28.98636,-16.49179 -13.65927,-4.43737 -26.80372,-10.7843 -41.17366,-12.58574 -4.68214,-0.88179 -9.36428,-1.76357 -14.04642,-2.64536 z"
       sodipodi:insensitive="true" /><path
       id="path267539"
       style="display:inline;opacity:0.5;fill:#ffdd55;stroke:#806600;stroke-width:0.264583px;stroke-linecap:butt;stroke-linejoin:miter;stroke-opacity:1"
       inkscape:label="comuna03"
       d="m 320.97834,250.42296 c -5.07119,2.29234 -10.69124,0.89858 -16.06517,1.1591 -3.3541,2.36948 -0.87608,6.83111 2.15284,8.28115 -2.90536,0.0555 -5.93829,2.23461 -9.04751,1.91564 -6.27392,3.61386 -11.67579,-4.36287 -18.34513,-0.0429 -5.38344,0.70434 -4.98144,7.63422 -7.55561,10.98486 -4.2194,2.16095 -8.59079,4.14434 -10.9058,8.53746 -2.89816,2.25195 -2.74926,7.35959 1.3777,7.92717 4.67258,2.53761 9.71596,4.21998 14.66422,6.12159 -1.77809,10.65132 -3.41973,21.3345 -6.98872,31.56862 -2.88289,9.0886 -4.95958,18.50743 -8.46099,27.34406 -5.98213,2.82355 0.89489,6.52963 0.79892,10.78074 0.46407,0.2283 0.91473,0.93627 1.35237,1.98903 2.17512,-0.0342 4.11974,0.8688 5.55936,3.58324 0.25126,9.16268 7.13321,0.12705 11.18433,-1.74873 5.81742,-5.4953 16.6525,-0.7669 8.89351,-12.94495 -16.39699,-4.21864 5.46392,-15.08421 11.62358,-6.41201 1.67444,11.75144 9.96308,14.7368 20.1874,12.86743 5.64993,6.4832 11.87521,6.98184 18.71152,1.15807 6.03902,-2.20384 9.00724,6.60933 14.97324,4.47828 -3.24345,-8.13119 3.88264,-1.14769 7.86464,-1.27124 5.76255,-0.72294 4.05854,7.30873 1.28416,10.18956 1.92035,2.30288 2.88554,10.09133 7.5985,9.82007 5.06805,12.25578 7.2137,-4.97863 12.60078,1.28054 -2.01352,12.42151 9.88877,1.51971 12.05146,7.69307 2.28626,0.55389 6.49669,4.43851 9.73636,6.91431 6.74261,0.89809 10.06431,-3.56389 14.88126,2.19832 8.65642,2.57476 10.08084,7.15752 15.14223,13.53405 1.11092,3.75935 -3.47766,10.17472 -1.11001,13.76454 0.12675,0.0684 0.26773,0.18796 0.43667,0.40618 7.11756,-10.82964 13.93171,-21.91706 21.23798,-32.58613 l 18.90272,-17.06976 c -6.75354,-6.48028 -13.50672,-12.96091 -20.26026,-19.44119 -3.08582,-9.24741 -9.38055,-18.44535 -20.18378,-18.54512 -22.64172,-5.07307 -45.48824,-9.47229 -67.75194,-16.05328 -6.05366,-2.62755 -6.4749,-12.71338 -14.24823,-8.48527 -4.57626,1.16775 -16.64388,0.882 -6.67246,-3.38326 2.41129,-3.42512 3.23905,-7.98222 5.02037,-11.85767 -2.87943,-2.91455 1.41657,-6.16634 -2.37195,-8.48166 -4.49438,-4.81637 -10.32698,-8.65505 -12.5398,-15.13861 -5.24279,-10.34514 -10.48597,-20.69017 -15.72876,-31.03531 z"
       sodipodi:nodetypes="ccccccccccccccccccccccccccccccccccccccccc"
       sodipodi:insensitive="true" /><path
       style="opacity:0.5;fill:#afc6e9;stroke:#3771c8;stroke-width:0.264583px;stroke-linecap:butt;stroke-linejoin:miter;stroke-opacity:1"
       d="m 473.66277,380.89284 c 10.92215,-6.02039 22.32585,-11.29191 32.0336,-19.24616 8.70544,-4.95781 17.41087,-9.91561 26.11631,-14.87342 -5.25486,-9.39397 -10.2148,-19.02126 -15.65276,-28.27038 -5.43975,-4.90343 -10.87949,-9.80685 -16.31923,-14.71028 6.28509,-8.47122 12.57018,-16.94244 18.85527,-25.41366 -8.45383,-4.46152 -16.73653,-9.41285 -25.29652,-13.57053 -7.21713,-2.2181 -14.26905,4.17548 -17.72048,8.92739 3.07937,3.85001 -2.08423,12.06052 -5.44512,15.10146 -5.45423,0.688 -10.58372,2.83826 -15.7328,4.73156 -3.88008,3.15638 -11.65509,-1.93177 -10.98786,-6.41483 2.94241,-0.10694 2.58004,-4.37184 5.85155,-4.32473 -0.24074,-2.9859 -5.15863,-3.70221 -3.27917,-7.61238 -11.41623,3.43833 -22.98685,6.55345 -34.30693,10.19309 -15.29852,10.51063 -30.45826,21.29559 -45.84328,31.63524 -2.48358,0.85256 -4.96715,1.70513 -7.45073,2.55769 4.33878,5.46584 8.82857,10.85028 16.29276,11.44219 19.74721,5.12349 39.58838,10.01633 59.65083,13.73964 7.28764,-0.0893 13.45822,4.12989 17.18719,10.18873 2.79005,6.86362 6.94801,12.33498 12.81988,16.97732 3.08614,2.97002 6.16198,5.95075 9.22749,8.94206 z"
       id="path267499"
       sodipodi:nodetypes="csccccccsccscccsccsccccccscscc"
       inkscape:label="comuna04"
       sodipodi:insensitive="true" /><path
       id="path268419"
       style="display:inline;opacity:0.5;fill:#999999;stroke:#333333;stroke-width:0.264583px;stroke-linecap:butt;stroke-linejoin:miter;stroke-opacity:1"
       inkscape:label="comuna05"
       d="m 558.89663,390.49916 c -1.29124,2.13972 -3.65667,3.915 -3.1135,6.67711 0.44599,3.24075 -1.61672,2.92897 -2.61121,0.3111 -1.35452,-1.1716 -3.78812,1.19566 -5.55987,1.39216 -3.4993,1.04278 -7.05643,1.90693 -10.57765,2.88199 -0.69241,5.71589 -7.30717,5.64888 -10.28877,6.93653 -0.44114,9.32006 -11.10908,4.45141 -16.66617,3.41478 -2.23663,7.19085 -8.36393,1.58209 -10.73268,-1.4981 -1.98498,0.0203 -7.12554,-0.97638 -4.62917,-3.71915 -2.4411,1.56462 -3.317,-2.95134 -4.73305,-0.7121 -1.10638,1.98441 -3.9332,-0.34158 -4.71444,-1.62109 -0.60175,-4.85967 -3.48858,1.68395 -4.28346,-2.47582 -2.62347,0.29689 -5.36996,-3.43338 -8.41706,-0.9834 -1.55481,2.13341 -3.81124,-0.0295 -5.9123,0.96738 -2.47644,0.9562 -4.53763,-1.09987 -6.60063,-2.15853 -2.32419,-3.55118 -4.38457,2.21064 -5.85235,3.86333 -6.23887,9.56432 -12.83072,19.21266 -18.53169,28.91607 0.47483,0.47337 1.7587,0.48211 1.39527,1.43557 0.0563,0.0777 0.11312,0.15411 0.16846,0.23564 4.51588,3.63349 4.61431,9.26809 5.39244,13.77332 0.31488,7.22888 8.56543,17.21732 16.72817,11.55227 7.51147,6.05529 11.53013,-6.35719 18.59112,0.9524 2.72757,-2.5524 9.4334,-4.05444 10.90166,0.44958 6.42014,2.83072 11.89032,3.82825 17.37878,1.91048 0.0479,-4.52418 12.15414,-5.89872 10.22728,-0.57981 0.0853,4.25061 7.15807,1.42502 10.018,0.94258 1.7865,4.8473 1.71633,-0.80928 4.29638,1.83606 0.93532,-0.59222 6.23684,-1.82026 8.4062,-1.19269 0.96305,0.0813 1.8405,0.39835 2.65307,0.88987 0.33033,0.0462 0.64155,0.16132 0.92552,0.3731 -3.50107,-1.90487 -2.42495,-2.90013 0.80461,-4.82968 1.8659,-2.39485 -0.31155,-4.23384 3.2122,-2.69182 4.12499,-2.40164 3.66871,-7.58384 5.0028,-11.58328 -0.0793,-3.48883 1.89297,-2.06641 3.86178,-0.65267 4.12668,2.30931 7.96354,5.26649 12.28504,7.1422 6.58809,-0.73589 7.80583,-9.88603 11.59567,-14.45596 -10.91732,-7.24607 -21.83469,-14.49215 -32.752,-21.73821 4.91724,-1.23593 10.28915,-1.64674 13.69993,-5.78518 9.93916,-3.4404 19.87815,-6.88094 29.81731,-10.32133 0.67971,-5.13112 -1.32436,-2.52777 -3.85972,-1.95441 -1.2445,-4.43385 -3.75549,-0.53682 -6.26938,-2.36833 0.12945,1.61005 1.35568,3.91091 -1.09192,4.61213 -4.13282,0.83001 -6.32272,-2.99291 -8.74831,-3.98116 -2.34148,1.24527 -2.04574,-3.62569 -4.69325,-2.31097 -2.71961,0.31172 -5.42376,-1.53462 -6.72311,-3.85196 z"
       sodipodi:insensitive="true" /><path
       style="opacity:0.5;fill:#00ff00;stroke:#008000;stroke-width:0.264583px;stroke-linecap:butt;stroke-linejoin:miter;stroke-opacity:1"
       d="m 561.79375,313.39589 26.81902,-24.94519 c -4.4344,-2.00476 -9.23887,-3.34989 -12.96686,-6.61379 -3.61371,-2.53726 -6.99661,-5.48214 -11.27117,-6.85232 -2.22943,-0.8787 -4.34485,-2.40417 -6.84854,-1.72696 -4.51693,0.34921 -9.11695,0.37831 -13.58276,0.9245 -2.73563,2.45306 -5.87933,1.16589 -4.03112,-2.87164 1.29369,-6.07908 4.73158,-11.23547 8.86903,-15.75955 3.32921,-5.13291 13.28685,-1.96659 12.64414,-10.34602 2.66509,-5.55016 10.05462,-6.22745 15.12458,-8.75263 -1.80715,-4.67637 -6.74572,-10.10957 -2.95963,-14.97453 3.83185,-4.2435 2.51716,-9.12029 -1.58949,-12.48494 -1.64537,-5.4608 -5.4325,4.11592 -7.5898,5.82605 -4.46261,6.15347 -8.77255,12.41608 -13.0405,18.70558 -1.68477,-4.96787 -5.26456,-10.77415 -0.64529,-15.21016 2.49578,-1.96955 2.946,-5.08818 2.51889,-8.04526 -0.26871,-1.99481 0.64777,-4.51774 -1.48544,-5.68175 -1.13279,-1.50705 -3.76821,-2.3684 -3.19888,-4.60687 v -7.91417 c -1.7567,-1.32729 -3.5134,-2.65457 -5.2701,-3.98186 -11.08676,13.66325 -22.17351,27.3265 -33.26027,40.98975 0.46845,2.10804 0.93691,4.21609 1.40536,6.32413 -2.63691,2.85119 -5.78005,5.35338 -8.10402,8.42031 -2.91433,6.65006 -6.11962,13.22883 -8.46604,20.09058 -1.05238,2.11446 2.44663,2.19094 3.57896,3.32715 10.11636,5.33657 19.95741,11.22678 30.51221,15.68163 2.65455,1.27074 5.62614,2.08867 7.40336,4.6125 z"
       id="path267635"
       inkscape:label="comuna06"
       sodipodi:nodetypes="cccccccccccccccccccccccccccc"
       sodipodi:insensitive="true" /><path
       id="path267596"
       style="display:inline;opacity:0.5;fill:#ff00ff;stroke:#800080;stroke-width:0.264583px;stroke-linecap:butt;stroke-linejoin:miter;stroke-opacity:1"
       inkscape:label="comuna07"
       d="m 627.71362,319.73656 c -2.76221,3.45262 -6.22021,5.97401 -10.29601,7.66878 -10.37763,5.54666 -21.03688,10.66061 -31.23737,16.47961 -2.04641,2.06155 -5.75472,3.7395 -6.77788,6.03736 0.6168,2.67057 4.79291,6.06213 1.04438,7.84862 -3.33162,1.53467 -2.78633,4.86205 -2.79828,7.93181 0.38596,3.5034 0.14482,6.39241 -4.1553,5.30666 -3.25656,0.99299 -3.38484,-5.77746 -6.89364,-2.87166 -4.03569,3.56414 -5.31733,11.72974 -13.30874,11.63443 -7.66303,1.9017 -15.13746,6.22185 -23.21151,4.99969 -3.20244,-0.17495 -6.40472,-0.35009 -9.60716,-0.52503 -6.41074,5.28454 -12.45236,-9.52363 -20.62768,-3.56206 -5.74858,1.71393 -12.64999,1.54815 -16.64808,6.62802 -2.36481,3.56279 -4.44326,-2.19983 -6.65903,-3.49642 -2.22554,-2.16173 -4.65478,3.28385 -6.96857,4.42195 -3.83621,3.54274 -7.67264,7.08555 -11.50885,10.62829 0.63645,-0.23937 1.30489,-0.0117 1.99677,1.04541 2.063,1.05866 4.1242,3.11473 6.60063,2.15853 2.10106,-0.99688 4.3575,1.16602 5.9123,-0.96738 3.0471,-2.44998 5.79359,1.28029 8.41706,0.9834 0.79488,4.15976 3.68171,-2.38385 4.28346,2.47582 0.78124,1.2795 3.60806,3.60549 4.71444,1.62109 1.41605,-2.23924 2.29195,2.27672 4.73305,0.7121 -2.49637,2.74276 2.64419,3.73945 4.62917,3.71915 2.36875,3.08019 8.49605,8.68894 10.73268,1.4981 5.55708,1.03663 16.22503,5.90527 16.66617,-3.41478 2.98159,-1.28765 9.59636,-1.22064 10.28877,-6.93653 3.52122,-0.97506 7.07836,-1.83921 10.57765,-2.88199 1.77175,-0.1965 4.20535,-2.56376 5.55987,-1.39216 0.99449,2.61786 3.0572,2.92965 2.61121,-0.3111 -0.54317,-2.7621 1.82227,-4.53739 3.1135,-6.67711 1.29935,2.31734 4.0035,4.16368 6.72311,3.85196 2.64751,-1.31472 2.35177,3.55624 4.69325,2.31097 2.42559,0.98825 4.61549,4.81116 8.74831,3.98116 0.53906,-0.15444 0.89241,-0.38974 1.12603,-0.6749 -0.013,-0.0798 -0.0191,-0.15065 -0.0341,-0.23306 0.0679,-0.005 0.12967,-0.003 0.19637,-0.007 0.55332,-1.02058 -0.10307,-2.53703 -0.19637,-3.69745 2.51389,1.83151 5.02488,-2.06551 6.26938,2.36833 2.53536,-0.57335 5.15428,-2.94248 3.92906,1.91223 3.10798,-0.79602 8.95836,-2.39447 5.70083,-3.45477 -1.94117,-2.30574 1.15654,-6.46347 -1.13275,-9.04906 -1.21831,-4.92104 2.14995,-3.51977 5.40019,-2.28099 l 11.07942,3.35741 c 1.3019,-2.6743 5.06789,-5.34721 1.85415,-8.0238 -3.00165,-2.47001 -0.32437,-5.44936 0.59842,-8.27133 1.54011,-2.1579 1.64337,-7.38439 4.14135,-7.4967 3.02549,-0.31838 8.62118,-6.04386 10.29963,0.60462 5.00698,1.0854 4.17279,-2.02601 5.86682,-3.55586 2.59322,2.64629 6.43236,4.04521 9.82162,1.988 2.82658,-0.24392 5.15281,4.12906 8.19692,1.45107 2.8699,-1.6552 5.7007,-1.5688 8.49405,0.19947 1.47999,-3.83738 4.69064,-2.64769 7.81193,-1.71721 3.88328,1.89635 7.85029,-0.86908 11.70316,-0.74362 2.65651,1.63611 5.65317,1.44606 8.64134,1.30121 0.0687,-2.41287 3.37167,-7.21047 1.30896,-8.0517 -3.3929,-0.50684 -7.69814,1.22424 -9.89242,-2.22312 -5.14492,-3.87577 -6.64317,-10.49372 -9.87743,-15.80627 -2.6472,0.48255 -5.79316,0.95433 -8.04189,-1.85726 -4.19451,-3.05042 -5.85462,-6.79356 -11.55692,-6.47609 -3.37929,-2.4825 -8.16089,-3.65478 -9.47435,-8.06772 -3.64043,2.30102 -3.85582,-3.22852 -7.83002,-1.93942 -1.91695,-0.15401 -3.83411,-0.30796 -5.75107,-0.46198 z"
       sodipodi:nodetypes="cccccccccccccccccccccccccccccccccccccccccccccccccccccccccccccccc"
       sodipodi:insensitive="true" /><path
       id="path268382"
       style="display:inline;opacity:0.5;fill:#ff8080;stroke:#ff5555;stroke-width:0.264583px;stroke-linecap:butt;stroke-linejoin:miter;stroke-opacity:1"
       inkscape:label="comuna08"
       d="m 689.576,243.7443 c -4.24346,-0.25022 -7.12399,3.70792 -8.86303,4.93975 -1.98747,1.40779 -4.22351,-1.32499 -4.22351,-1.32499 l -0.33125,-3.22978 h -2.07016 l -6.29367,6.1278 -6.7908,1.57354 -3.06389,-1.98747 -3.0639,1.65623 -1.90479,-1.2423 -2.73265,3.47834 -1.9048,-0.24857 -1.65623,6.29368 -6.95616,-3.89227 -16.72818,9.27488 -6.79028,1.82211 -3.1471,3.22978 14.24358,17.55604 -14.16089,8.86095 -0.49662,2.48409 6.04511,3.97495 2.98122,8.44703 2.98121,2.23604 1.07694,4.72012 1.91409,1.33119 c 0.0242,-0.03 0.0493,-0.0588 0.0734,-0.0889 1.91696,0.15402 3.83412,0.30797 5.75107,0.46198 3.9742,-1.2891 4.18959,4.24044 7.83002,1.93942 1.31346,4.41294 6.09506,5.58522 9.47435,8.06772 5.7023,-0.31747 7.36241,3.42567 11.55692,6.47609 2.24873,2.81159 5.39469,2.33981 8.04189,1.85726 3.23426,5.31255 4.73251,11.9305 9.87743,15.80627 2.19428,3.44736 6.49952,1.71628 9.89242,2.22312 0.16881,0.0688 0.29832,0.16637 0.39998,0.28473 l 1.10639,-0.26561 42.39948,-15.4032 0.16588,-4.96869 -3.39514,-5.71386 -31.55157,-2.64997 -6.21099,-6.87348 -5.4653,-0.41393 -8.19846,-7.28741 -2.23604,1.2423 -4.47156,-8.44703 c 0,0 5.46555,-4.14029 5.63118,-7.45277 0.16563,-3.31248 -4.96869,-13.99553 -4.96869,-13.99553 l 31.88229,-36.68562 c 0,0 -1.73878,-1.57329 -3.14658,-1.07642 -1.40779,0.49687 -0.66286,1.90453 -2.73316,2.73265 -2.07029,0.82812 -1.90453,0.66288 -3.72639,-0.91053 -1.82187,-1.57342 1.15965,-2.73291 -4.14032,-4.55477 -0.66249,-0.22773 -1.29652,-0.34924 -1.90272,-0.38498 z"
       sodipodi:insensitive="true" /><path
       id="path268376"
       style="opacity:0.5;fill:#ff9955;stroke:#ff6600;stroke-width:0.264583px;stroke-linecap:butt;stroke-linejoin:miter;stroke-opacity:1"
       inkscape:label="comuna09"
       d="m 757.2313,127.5302 -17.8878,1.98748 -6.79028,5.29993 -12.33878,0.41393 -4.72065,0.82837 c 0,0 -1.57326,1.65623 -2.07015,1.65623 -0.49686,0 -2.48461,-0.16588 -2.48461,-0.16588 l -1.65623,3.97495 -4.00595,0.0403 -8.99532,15.9427 -17.55603,38.75577 -5.12631,6.83472 c 0.49265,0.73004 0.93853,1.45275 1.23404,2.10944 1.49064,3.31244 0.49712,6.21099 0.49712,6.21099 l 8.94364,4.886 -0.99373,7.53494 2.48408,18.46709 0.61495,2.04949 c 0.96651,-0.42458 2.0281,-0.68127 3.19671,-0.61236 0.6062,0.0357 1.24023,0.15725 1.90272,0.38498 5.29997,1.82186 2.31845,2.98135 4.14032,4.55477 1.82186,1.57339 1.6561,1.73865 3.72639,0.91053 2.07028,-0.82812 1.32537,-2.23578 2.73316,-2.73265 1.4078,-0.49687 3.14658,1.07642 3.14658,1.07642 l -1.40456,1.61593 1.156,-0.12506 -0.41393,1.57355 c 0,0 1.40767,0.99373 1.40767,1.32498 0,0.33125 -0.5793,2.64997 -0.5793,2.64997 l 1.07642,0.24804 1.32499,-0.49661 8.94364,1.40767 1.49034,-1.32498 5.46582,1.2423 8.19847,-3.56102 10.10274,5.96242 2.73317,-0.99374 8.94364,2.15336 7.20472,0.41393 -0.91105,-1.65623 4.63744,-8.52971 -9.35808,-4.88601 -9.44025,-1.65623 -0.0827,-2.15284 4.22352,-3.80959 6.12779,-2.48408 -1.1591,-15.07195 -25.25789,-1.07642 0.49712,-4.38888 30.47463,-5.05189 -6.12831,-11.0138 6.21099,-2.15335 1.49087,-6.12779 4.47156,-5.87975 1.15962,-6.62492 -4.05815,-5.63118 0.99374,-9.02632 c 0,0 2.81597,-2.40179 3.39565,-2.15336 0.57967,0.24844 5.54799,1.07642 5.54799,1.07642 l -0.41393,-2.48408 7.53597,2.81533 2.15284,1.49086 1.65675,0.6625 2.89801,3.39514 2.73317,-12.42147 -0.99374,-3.22977 -2.64997,-3.0639 -0.66249,-3.7269 -2.65048,0.74569 c 0,0 -1.65608,-0.16601 -3.72639,-1.07694 -2.07028,-0.91093 -1.49035,-3.89175 -1.49035,-3.89175 l -3.7269,-6.37687 -10.02006,0.82837 z m -87.2846,73.77017 c 0.62044,0.28082 1.15698,0.58524 1.60662,0.87644 -0.44964,-0.29114 -0.98618,-0.59565 -1.60662,-0.87644 z m 1.60662,0.87644 c 1.12411,0.72798 1.70636,1.37511 1.70636,1.37511 v -5.2e-4 c 0,0 -0.58225,-0.64676 -1.70636,-1.37459 z m 12.30158,43.7689 c -0.1097,0.088 -0.21589,0.17509 -0.32195,0.26407 0.10557,-0.0887 0.21269,-0.17629 0.32195,-0.26407 z"
       sodipodi:insensitive="true" /><path
       id="path268386"
       style="opacity:0.5;fill:#9955ff;stroke:#5500d4;stroke-width:0.264583px;stroke-linecap:butt;stroke-linejoin:miter;stroke-opacity:1"
       inkscape:label="comuna10"
       d="m 653.71617,12.421981 0.82837,36.602417 -30.6405,38.75629 -80.98989,100.202152 0.0563,0.49506 c 0.10648,-0.13123 0.21287,-0.26254 0.31936,-0.39377 1.75669,1.32729 3.51326,2.65489 5.26996,3.98218 v 7.91425 c -0.56933,2.23847 2.06598,3.0999 3.19877,4.60695 2.13321,1.16401 1.21699,3.6865 1.4857,5.68131 0.42711,2.95708 -0.0229,6.07595 -2.51871,8.0455 -4.61927,4.43601 -1.03985,10.24206 0.64492,15.20993 4.26795,-6.2895 8.57794,-12.55186 13.04055,-18.70532 2.15729,-1.71013 5.94435,-11.2868 7.58971,-5.826 4.10665,3.36464 5.42142,8.24153 1.58957,12.48502 -3.78608,4.86496 1.15236,10.29792 2.95951,14.97428 -0.0772,0.0385 -0.15945,0.073 -0.23771,0.11059 l 0.555,-0.0522 5.13406,-1.82211 12.91859,-0.33125 11.92485,-11.59361 11.75949,1.32499 12.91859,-0.82786 c 0,0 4.63771,-1.15961 7.45329,-4.47208 2.81559,-3.31246 2.98122,-8.44651 2.98122,-8.44651 0,0 0.33125,-1.82211 2.31872,-3.1471 1.9875,-1.32498 14.07769,0.33125 14.07769,0.33125 l 5.96243,-6.7908 c 0,0 1.82186,-0.82786 4.63744,0.16588 2.81559,0.99374 4.3062,2.64997 4.3062,2.64997 l 5.46582,-7.28741 17.55603,-38.75577 20.37188,-36.10633 29.81214,-50.680625 -6.29368,-4.140833 -4.14083,0.165881 -0.16536,4.637444 -2.31872,0.993737 -4.47208,-1.324983 -7.78402,7.949902 7.28741,-16.562297 -29.14964,5.299935 -4.80333,-1.159619 -2.15284,-2.981213 -1.15962,0.828373 -19.0469,-19.046899 1.98748,-2.981214 c 0,0 5.7968,1.490872 8.61239,-0.49661 2.81562,-1.987481 4.63795,-3.97494 4.30672,-8.281149 -0.33126,-4.306208 -4.47208,-7.453291 -4.47208,-7.453291 l -8.44703,-7.784021 -11.59361,-5.631181 z"
       sodipodi:insensitive="true" /><path
       id="path268378"
       style="opacity:0.5;fill:#5599ff;stroke:#0066ff;stroke-width:0.264583px;stroke-linecap:butt;stroke-linejoin:miter;stroke-opacity:1"
       inkscape:label="comuna11"
       d="m 666.24874,200.41206 c -1.22115,-8e-5 -1.9327,0.32349 -1.9327,0.32349 l -5.96243,6.7908 c 0,0 -12.09019,-1.65619 -14.07769,-0.33125 -1.98747,1.32499 -2.31872,3.1471 -2.31872,3.1471 0,0 -0.16563,5.13409 -2.98122,8.44651 -2.81554,3.31247 -7.45329,4.47208 -7.45329,4.47208 l -12.91859,0.82786 -11.75949,-1.32499 -11.92485,11.59361 -12.91859,0.33125 -5.13406,1.82211 -0.555,0.0522 c -5.06071,2.43283 -12.26193,3.17623 -14.88643,8.64185 0.64271,8.37941 -9.31498,5.21323 -12.64419,10.34614 -4.13745,4.52408 -7.57554,9.6807 -8.86923,15.75976 -1.84819,4.03753 1.29567,5.32472 4.03128,2.87166 4.46581,-0.54619 9.06571,-0.57528 13.58264,-0.92449 2.50367,-0.67721 4.61926,0.84833 6.84867,1.72703 4.27456,1.37016 7.65744,4.31503 11.27115,6.85229 3.72799,3.2639 8.53225,4.60879 12.96665,6.61355 l -0.15813,0.14728 3.32021,0.32143 22.83737,-20.37809 0.0672,0.008 1.52342,-1.56373 6.79028,-1.82211 16.72818,-9.27488 6.95616,3.89227 1.65623,-6.29368 1.9048,0.24857 2.73265,-3.47834 1.90479,1.2423 3.0639,-1.65623 3.06389,1.98747 6.7908,-1.57354 6.29367,-6.1278 h 2.07016 l 0.33125,3.22978 c 0,0 2.23604,2.73277 4.22351,1.32499 1.26013,-0.8926 3.12325,-3.21023 5.66632,-4.32739 l -0.61495,-2.04949 -2.48408,-18.46709 0.99373,-7.53545 -8.94364,-4.88601 c 0,0 0.99352,-2.89852 -0.49712,-6.21099 -0.29551,-0.65669 -0.74139,-1.37888 -1.23404,-2.10892 l -0.33951,0.45269 c 0,0 -1.49061,-1.65623 -4.3062,-2.64997 -1.05584,-0.37265 -1.97205,-0.48933 -2.70474,-0.48937 z m -92.64293,30.07258 c 0.20127,0.42558 0.41628,0.84644 0.63407,1.26814 -0.21709,-0.42106 -0.43313,-0.84326 -0.63407,-1.26814 z m 0.98186,1.94148 c 0.32002,0.60707 0.62972,1.20675 0.93276,1.79989 -0.3023,-0.59311 -0.61343,-1.19286 -0.93276,-1.79989 z m 1.24592,2.41846 c 0.0905,0.18509 0.17845,0.36919 0.26303,0.55242 -0.0844,-0.18313 -0.17276,-0.36742 -0.26303,-0.55242 z m 0.36586,0.77566 c 0.12538,0.27968 0.24421,0.55727 0.35037,0.83199 -0.1061,-0.27456 -0.22524,-0.55245 -0.35037,-0.83199 z"
       sodipodi:insensitive="true" /><path
       id="path267631"
       style="display:inline;opacity:0.5;fill:#ffb380;stroke:#ff7f2a;stroke-width:0.264583px;stroke-linecap:butt;stroke-linejoin:miter;stroke-opacity:1"
       inkscape:label="comuna12"
       d="m 614.6121,268.54123 -22.83737,20.37809 -3.63027,-0.3514 -26.23354,24.82794 -28.10733,-28.22412 -15.0704,-6.84144 -19.04689,25.42325 16.31425,14.7407 15.8166,28.32179 -26.08575,14.6575 c 0,0 -7.61865,5.54809 -11.26236,8.11527 -3.64369,2.56717 -20.95117,11.34556 -20.95117,11.34556 l 2.15284,1.8216 0.11575,0.60926 c 0.25235,0.0685 0.50312,0.21049 0.75086,0.45114 2.21577,1.29659 4.29422,7.05921 6.65903,3.49642 3.99809,-5.07987 10.8995,-4.91409 16.64808,-6.62802 8.17532,-5.96157 14.21694,8.8466 20.62768,3.56206 3.20244,0.17494 6.40472,0.35008 9.60716,0.52503 8.07405,1.22216 15.54848,-3.09799 23.21151,-4.99969 7.99141,0.0953 9.27305,-8.07029 13.30874,-11.63443 3.5088,-2.9058 3.63708,3.86465 6.89364,2.87166 4.30012,1.08575 4.54126,-1.80326 4.1553,-5.30666 0.0119,-3.06976 -0.53334,-6.39714 2.79828,-7.93181 3.74853,-1.78649 -0.42758,-5.17805 -1.04438,-7.84862 1.02316,-2.29786 4.73147,-3.97581 6.77788,-6.03736 10.20049,-5.819 20.85974,-10.93295 31.23737,-16.47961 4.04004,-1.6799 7.47101,-4.17479 10.22108,-7.58093 l -1.91254,-1.33016 -1.07694,-4.72012 -2.98121,-2.23604 -2.98122,-8.44703 -6.04511,-3.97495 0.49662,-2.48409 14.16089,-8.86095 -14.24358,-17.55604 1.62368,-1.66605 z"
       sodipodi:insensitive="true" /></g><g
     inkscape:groupmode="layer"
     id="layer3"
     inkscape:label="numeros"
     style="display:none"><text
       xml:space="preserve"
       style="font-style:normal;font-weight:normal;font-size:50.8px;line-height:1.25;font-family:sans-serif;letter-spacing:0px;word-spacing:0px;opacity:0.5;fill:#4a4a4a;fill-opacity:1;stroke:none;stroke-width:0.264583"
       x="300.77243"
       y="439.89627"
       id="text268522"
       inkscape:label="uno"><tspan
         sodipodi:role="line"
         id="tspan268520"
         style="font-size:50.8px;fill:#4a4a4a;fill-opacity:1;stroke-width:0.264583"
         x="300.77243"
         y="439.89627">1</tspan></text><text
       xml:space="preserve"
       style="font-style:normal;font-weight:normal;font-size:50.8px;line-height:1.25;font-family:sans-serif;letter-spacing:0px;word-spacing:0px;opacity:0.5;fill:#4a4a4a;fill-opacity:1;stroke:none;stroke-width:0.264583"
       x="472.35846"
       y="524.6955"
       id="text268578"
       inkscape:label="dos"><tspan
         sodipodi:role="line"
         id="tspan268576"
         style="font-size:50.8px;fill:#4a4a4a;fill-opacity:1;stroke-width:0.264583"
         x="472.35846"
         y="524.6955">2</tspan></text><text
       xml:space="preserve"
       style="font-style:normal;font-weight:normal;font-size:50.8px;line-height:1.25;font-family:sans-serif;letter-spacing:0px;word-spacing:0px;opacity:0.5;fill:#4a4a4a;fill-opacity:1;stroke:none;stroke-width:0.264583"
       x="294.6825"
       y="329.34106"
       id="text268582"
       inkscape:label="tres"><tspan
         sodipodi:role="line"
         id="tspan268580"
         style="font-size:50.8px;fill:#4a4a4a;fill-opacity:1;stroke-width:0.264583"
         x="294.6825"
         y="329.34106">3</tspan></text><text
       xml:space="preserve"
       style="font-style:normal;font-weight:normal;font-size:50.8px;line-height:1.25;font-family:sans-serif;letter-spacing:0px;word-spacing:0px;opacity:0.5;fill:#4a4a4a;fill-opacity:1;stroke:none;stroke-width:0.264583"
       x="452.35614"
       y="340.77396"
       id="text268586"
       inkscape:label="cuatro"><tspan
         sodipodi:role="line"
         id="tspan268584"
         style="font-size:50.8px;fill:#4a4a4a;fill-opacity:1;stroke-width:0.264583"
         x="452.35614"
         y="340.77396">4</tspan></text><text
       xml:space="preserve"
       style="font-style:normal;font-weight:normal;font-size:50.8px;line-height:1.25;font-family:sans-serif;letter-spacing:0px;word-spacing:0px;opacity:0.5;fill:#4a4a4a;fill-opacity:1;stroke:none;stroke-width:0.264583"
       x="455.16687"
       y="450.39224"
       id="text268590"
       inkscape:label="cinco"><tspan
         sodipodi:role="line"
         id="tspan268588"
         style="font-size:50.8px;fill:#4a4a4a;fill-opacity:1;stroke-width:0.264583"
         x="455.16687"
         y="450.39224">5</tspan></text><text
       xml:space="preserve"
       style="font-style:normal;font-weight:normal;font-size:50.8px;line-height:1.25;font-family:sans-serif;letter-spacing:0px;word-spacing:0px;opacity:0.5;fill:#4a4a4a;fill-opacity:1;stroke:none;stroke-width:0.264583"
       x="512.3183"
       y="262.07364"
       id="text268594"
       inkscape:label="seis"><tspan
         sodipodi:role="line"
         id="tspan268592"
         style="font-size:50.8px;fill:#4a4a4a;fill-opacity:1;stroke-width:0.264583"
         x="512.3183"
         y="262.07364">6</tspan></text><text
       xml:space="preserve"
       style="font-style:normal;font-weight:normal;font-size:50.8px;line-height:1.25;font-family:sans-serif;letter-spacing:0px;word-spacing:0px;opacity:0.5;fill:#4a4a4a;fill-opacity:1;stroke:none;stroke-width:0.264583"
       x="590.76202"
       y="378.56372"
       id="text268598"
       inkscape:label="siete"><tspan
         sodipodi:role="line"
         id="tspan268596"
         style="font-size:50.8px;fill:#4a4a4a;fill-opacity:1;stroke-width:0.264583"
         x="590.76202"
         y="378.56372">7</tspan></text><text
       xml:space="preserve"
       style="font-style:normal;font-weight:normal;font-size:50.8px;line-height:1.25;font-family:sans-serif;letter-spacing:0px;word-spacing:0px;opacity:0.5;fill:#4a4a4a;fill-opacity:1;stroke:none;stroke-width:0.264583"
       x="635.05334"
       y="307.98218"
       id="text268602"
       inkscape:label="ocho"><tspan
         sodipodi:role="line"
         id="tspan268600"
         style="font-size:50.8px;fill:#4a4a4a;fill-opacity:1;stroke-width:0.264583"
         x="635.05334"
         y="307.98218">8</tspan></text><text
       xml:space="preserve"
       style="font-style:normal;font-weight:normal;font-size:50.8px;line-height:1.25;font-family:sans-serif;letter-spacing:0px;word-spacing:0px;opacity:0.5;fill:#4a4a4a;fill-opacity:1;stroke:none;stroke-width:0.264583"
       x="706.27655"
       y="202.72832"
       id="text268606"
       inkscape:label="nueve"><tspan
         sodipodi:role="line"
         id="tspan268604"
         style="font-size:50.8px;fill:#4a4a4a;fill-opacity:1;stroke-width:0.264583"
         x="706.27655"
         y="202.72832">9</tspan></text><text
       xml:space="preserve"
       style="font-style:normal;font-weight:normal;font-size:50.8px;line-height:1.25;font-family:sans-serif;letter-spacing:0px;word-spacing:0px;opacity:0.5;fill:#4a4a4a;fill-opacity:1;stroke:none;stroke-width:0.264583"
       x="605.24274"
       y="164.74887"
       id="text268610"
       inkscape:label="diez"><tspan
         sodipodi:role="line"
         id="tspan268608"
         style="font-size:50.8px;fill:#4a4a4a;fill-opacity:1;stroke-width:0.264583"
         x="605.24274"
         y="164.74887">10</tspan></text><text
       xml:space="preserve"
       style="font-style:normal;font-weight:normal;font-size:50.8px;line-height:1.25;font-family:sans-serif;letter-spacing:0px;word-spacing:0px;opacity:0.5;fill:#4a4a4a;fill-opacity:1;stroke:none;stroke-width:0.264583"
       x="562.63696"
       y="273.06573"
       id="text268614"
       inkscape:label="once"><tspan
         sodipodi:role="line"
         id="tspan268612"
         style="font-size:50.8px;fill:#4a4a4a;fill-opacity:1;stroke-width:0.264583"
         x="562.63696"
         y="273.06573">11</tspan></text><text
       xml:space="preserve"
       style="font-style:normal;font-weight:normal;font-size:50.8px;line-height:1.25;font-family:sans-serif;letter-spacing:0px;word-spacing:0px;opacity:0.5;fill:#4a4a4a;fill-opacity:1;stroke:none;stroke-width:0.264583"
       x="517.12201"
       y="357.60367"
       id="text268618"
       inkscape:label="doce"><tspan
         sodipodi:role="line"
         id="tspan268616"
         style="font-size:50.8px;fill:#4a4a4a;fill-opacity:1;stroke-width:0.264583"
         x="517.12201"
         y="357.60367">12</tspan></text></g></svg>
